<?xml version="1.0" encoding="utf-8"?>
<!-- Generator: Adobe Illustrator 16.0.0, SVG Export Plug-In . SVG Version: 6.00 Build 0)  -->
<!DOCTYPE svg PUBLIC "-//W3C//DTD SVG 1.1//EN" "http://www.w3.org/Graphics/SVG/1.1/DTD/svg11.dtd">
<svg version="1.1" id="Layer_1" xmlns="http://www.w3.org/2000/svg" xmlns:xlink="http://www.w3.org/1999/xlink" x="0px" y="0px"
	 width="256px" height="256px" viewBox="0 0 256 256" enable-background="new 0 0 256 256" xml:space="preserve">
<g>
	<radialGradient id="SVGID_1_" cx="106.6694" cy="44.0664" r="20.6316" gradientUnits="userSpaceOnUse">
		<stop  offset="5.127409e-004" style="stop-color:#2AFFF0"/>
		<stop  offset="0.1329" style="stop-color:#28F9EE"/>
		<stop  offset="0.3181" style="stop-color:#23E6E7"/>
		<stop  offset="0.5345" style="stop-color:#1AC8DD"/>
		<stop  offset="0.7724" style="stop-color:#0E9FCF"/>
		<stop  offset="1" style="stop-color:#0071BF"/>
	</radialGradient>
	<path fill="url(#SVGID_1_)" d="M112.879,71.896c0.069,0.196,0.275,0.294,0.464,0.241l0.94-0.237c0.2-0.04,0.33-0.232,0.289-0.444
		l-4.757-28.371l-9.321-26.845c-0.054-0.193-0.269-0.306-0.466-0.239c-0.315,0.092-0.642,0.174-0.963,0.239l-0.006,0.006
		c-0.199,0.055-0.33,0.233-0.293,0.444l4.693,28.081L112.879,71.896z"/>
	<radialGradient id="SVGID_2_" cx="120.0869" cy="41.7261" r="20.4952" gradientUnits="userSpaceOnUse">
		<stop  offset="5.127409e-004" style="stop-color:#2AFFF0"/>
		<stop  offset="0.1329" style="stop-color:#28F9EE"/>
		<stop  offset="0.3181" style="stop-color:#23E6E7"/>
		<stop  offset="0.5345" style="stop-color:#1AC8DD"/>
		<stop  offset="0.7724" style="stop-color:#0E9FCF"/>
		<stop  offset="1" style="stop-color:#0071BF"/>
	</radialGradient>
	<path fill="url(#SVGID_2_)" d="M121.873,70.182c0.037,0.204,0.221,0.333,0.422,0.312l0.959-0.092
		c0.205-0.008,0.372-0.174,0.352-0.392l-0.253-28.757l-4.999-27.976c-0.036-0.203-0.227-0.347-0.435-0.317
		c-0.326,0.045-0.667,0.073-0.993,0.092h-0.001c-0.203,0.022-0.359,0.182-0.359,0.391l0.238,28.476L121.873,70.182z"/>
	<radialGradient id="SVGID_3_" cx="133.7236" cy="41.5146" r="20.5138" gradientUnits="userSpaceOnUse">
		<stop  offset="5.127409e-004" style="stop-color:#2AFFF0"/>
		<stop  offset="0.1329" style="stop-color:#28F9EE"/>
		<stop  offset="0.3181" style="stop-color:#23E6E7"/>
		<stop  offset="0.5345" style="stop-color:#1AC8DD"/>
		<stop  offset="0.7724" style="stop-color:#0E9FCF"/>
		<stop  offset="1" style="stop-color:#0071BF"/>
	</radialGradient>
	<path fill="url(#SVGID_3_)" d="M131.385,70.267l0.965,0.071c0.203,0.011,0.387-0.122,0.408-0.337l4.256-28.451l-0.568-28.416
		c0-0.205-0.17-0.378-0.379-0.375c-0.326-0.01-0.664-0.031-0.985-0.063l-0.021-0.004c-0.199-0.01-0.371,0.126-0.404,0.333
		l-4.223,28.155l0.582,28.715C131.025,70.102,131.186,70.262,131.385,70.267z"/>
	<radialGradient id="SVGID_4_" cx="147.2178" cy="43.4307" r="20.608" gradientUnits="userSpaceOnUse">
		<stop  offset="5.127409e-004" style="stop-color:#2AFFF0"/>
		<stop  offset="0.1329" style="stop-color:#28F9EE"/>
		<stop  offset="0.3181" style="stop-color:#23E6E7"/>
		<stop  offset="0.5345" style="stop-color:#1AC8DD"/>
		<stop  offset="0.7724" style="stop-color:#0E9FCF"/>
		<stop  offset="1" style="stop-color:#0071BF"/>
	</radialGradient>
	<path fill="url(#SVGID_4_)" d="M140.398,71.471l0.949,0.206c0.189,0.055,0.396-0.049,0.455-0.259l8.646-27.438l3.885-28.15
		c0.031-0.2-0.104-0.396-0.313-0.431c-0.322-0.058-0.652-0.131-0.972-0.216c0-0.007-0.012-0.004-0.012-0.004
		c-0.196-0.04-0.386,0.058-0.456,0.26l-8.574,27.153L140.1,71.034C140.077,71.248,140.204,71.422,140.398,71.471z"/>
	<radialGradient id="SVGID_5_" cx="160.2354" cy="47.4346" r="20.728" gradientUnits="userSpaceOnUse">
		<stop  offset="5.127409e-004" style="stop-color:#2AFFF0"/>
		<stop  offset="0.1329" style="stop-color:#28F9EE"/>
		<stop  offset="0.3181" style="stop-color:#23E6E7"/>
		<stop  offset="0.5345" style="stop-color:#1AC8DD"/>
		<stop  offset="0.7724" style="stop-color:#0E9FCF"/>
		<stop  offset="1" style="stop-color:#0071BF"/>
	</radialGradient>
	<path fill="url(#SVGID_5_)" d="M149.116,74.063l0.899,0.357c0.182,0.085,0.402,0.013,0.496-0.184l12.829-25.75l8.243-27.193
		c0.061-0.194-0.043-0.412-0.242-0.476c-0.308-0.111-0.631-0.236-0.919-0.367c0,0-0.013-0.003-0.013-0.008
		c-0.193-0.075-0.395,0-0.495,0.191L157.201,46.11l-8.317,27.486C148.83,73.796,148.932,73.992,149.116,74.063z"/>
	<radialGradient id="SVGID_6_" cx="172.4707" cy="53.4248" r="20.812" gradientUnits="userSpaceOnUse">
		<stop  offset="5.127409e-004" style="stop-color:#2AFFF0"/>
		<stop  offset="0.1329" style="stop-color:#28F9EE"/>
		<stop  offset="0.3181" style="stop-color:#23E6E7"/>
		<stop  offset="0.5345" style="stop-color:#1AC8DD"/>
		<stop  offset="0.7724" style="stop-color:#0E9FCF"/>
		<stop  offset="1" style="stop-color:#0071BF"/>
	</radialGradient>
	<path fill="url(#SVGID_6_)" d="M157.17,77.489c-0.092,0.187-0.02,0.399,0.153,0.502l0.831,0.492c0.178,0.11,0.396,0.069,0.52-0.103
		l16.699-23.425l12.396-25.567c0.094-0.196,0.021-0.42-0.172-0.513c-0.281-0.16-0.574-0.33-0.85-0.507
		c0-0.006-0.004-0.006-0.014-0.006c-0.176-0.105-0.387-0.06-0.51,0.109l-16.543,23.17L157.17,77.489z"/>
	<radialGradient id="SVGID_7_" cx="183.6094" cy="61.2588" r="20.8572" gradientUnits="userSpaceOnUse">
		<stop  offset="5.127409e-004" style="stop-color:#2AFFF0"/>
		<stop  offset="0.1329" style="stop-color:#28F9EE"/>
		<stop  offset="0.3181" style="stop-color:#23E6E7"/>
		<stop  offset="0.5345" style="stop-color:#1AC8DD"/>
		<stop  offset="0.7724" style="stop-color:#0E9FCF"/>
		<stop  offset="1" style="stop-color:#0071BF"/>
	</radialGradient>
	<path fill="url(#SVGID_7_)" d="M164.741,82.63c-0.126,0.174-0.093,0.388,0.067,0.523l0.744,0.62
		c0.15,0.131,0.379,0.129,0.531-0.024l20.163-20.527l16.229-23.309c0.129-0.178,0.092-0.415-0.078-0.532
		c-0.26-0.199-0.521-0.416-0.762-0.636l-0.015-0.01c-0.155-0.121-0.371-0.117-0.517,0.027l-19.967,20.301L164.741,82.63z"/>
	<radialGradient id="SVGID_8_" cx="81.7666" cy="54.8569" r="20.8226" gradientUnits="userSpaceOnUse">
		<stop  offset="5.127409e-004" style="stop-color:#2AFFF0"/>
		<stop  offset="0.1329" style="stop-color:#28F9EE"/>
		<stop  offset="0.3181" style="stop-color:#23E6E7"/>
		<stop  offset="0.5345" style="stop-color:#1AC8DD"/>
		<stop  offset="0.7724" style="stop-color:#0E9FCF"/>
		<stop  offset="1" style="stop-color:#0071BF"/>
	</radialGradient>
	<path fill="url(#SVGID_8_)" d="M79.079,56.756l17.153,22.64c0.126,0.176,0.364,0.22,0.528,0.097
		c0.266-0.183,0.557-0.37,0.837-0.528c0,0,0.012-0.009,0.012-0.012c0.175-0.103,0.233-0.323,0.135-0.506L84.602,53.19L67.256,30.305
		c-0.117-0.167-0.343-0.199-0.509-0.09l-0.825,0.508c-0.17,0.109-0.231,0.33-0.133,0.517L79.079,56.756z"/>
	<radialGradient id="SVGID_9_" cx="93.8047" cy="48.481" r="20.7454" gradientUnits="userSpaceOnUse">
		<stop  offset="5.127409e-004" style="stop-color:#2AFFF0"/>
		<stop  offset="0.1329" style="stop-color:#28F9EE"/>
		<stop  offset="0.3181" style="stop-color:#23E6E7"/>
		<stop  offset="0.5345" style="stop-color:#1AC8DD"/>
		<stop  offset="0.7724" style="stop-color:#0E9FCF"/>
		<stop  offset="1" style="stop-color:#0071BF"/>
	</radialGradient>
	<path fill="url(#SVGID_9_)" d="M104.25,74.985c0.094,0.193,0.32,0.271,0.509,0.179c0.297-0.141,0.611-0.279,0.913-0.395
		c0,0,0.006,0,0.01-0.005c0.183-0.079,0.281-0.29,0.213-0.479l-9.024-27.008L83.318,21.969c-0.097-0.188-0.312-0.258-0.5-0.175
		l-0.889,0.381c-0.187,0.079-0.279,0.278-0.217,0.484l9.141,27.279L104.25,74.985z"/>
	<radialGradient id="SVGID_10_" cx="149.8477" cy="212.2275" r="20.6341" gradientUnits="userSpaceOnUse">
		<stop  offset="5.127409e-004" style="stop-color:#2AFFF0"/>
		<stop  offset="0.1329" style="stop-color:#28F9EE"/>
		<stop  offset="0.3181" style="stop-color:#23E6E7"/>
		<stop  offset="0.5345" style="stop-color:#1AC8DD"/>
		<stop  offset="0.7724" style="stop-color:#0E9FCF"/>
		<stop  offset="1" style="stop-color:#0071BF"/>
	</radialGradient>
	<path fill="url(#SVGID_10_)" d="M143.674,184.406c-0.061-0.199-0.27-0.305-0.474-0.254c-0.31,0.104-0.65,0.188-0.956,0.254
		c0,0-0.006,0-0.02,0c-0.191,0.055-0.312,0.24-0.287,0.447l4.697,28.078l9.43,27.118c0.061,0.205,0.256,0.306,0.455,0.25
		l0.943-0.231c0.191-0.047,0.322-0.238,0.293-0.445L153,211.254L143.674,184.406z"/>
	<radialGradient id="SVGID_11_" cx="136.4277" cy="214.5742" r="20.4976" gradientUnits="userSpaceOnUse">
		<stop  offset="5.127409e-004" style="stop-color:#2AFFF0"/>
		<stop  offset="0.1329" style="stop-color:#28F9EE"/>
		<stop  offset="0.3181" style="stop-color:#23E6E7"/>
		<stop  offset="0.5345" style="stop-color:#1AC8DD"/>
		<stop  offset="0.7724" style="stop-color:#0E9FCF"/>
		<stop  offset="1" style="stop-color:#0071BF"/>
	</radialGradient>
	<path fill="url(#SVGID_11_)" d="M138.217,243.021c0.028,0.211,0.207,0.34,0.412,0.324l0.969-0.091
		c0.192-0.016,0.354-0.188,0.358-0.391l-0.261-28.765l-5.004-27.979c-0.037-0.211-0.226-0.342-0.439-0.316
		c-0.314,0.047-0.661,0.076-0.98,0.092c-0.002,0-0.01,0-0.01,0c-0.207,0.019-0.361,0.185-0.361,0.396l0.246,28.469L138.217,243.021z
		"/>
	<radialGradient id="SVGID_12_" cx="122.8252" cy="214.7871" r="20.5137" gradientUnits="userSpaceOnUse">
		<stop  offset="5.127409e-004" style="stop-color:#2AFFF0"/>
		<stop  offset="0.1329" style="stop-color:#28F9EE"/>
		<stop  offset="0.3181" style="stop-color:#23E6E7"/>
		<stop  offset="0.5345" style="stop-color:#1AC8DD"/>
		<stop  offset="0.7724" style="stop-color:#0E9FCF"/>
		<stop  offset="1" style="stop-color:#0071BF"/>
	</radialGradient>
	<path fill="url(#SVGID_12_)" d="M125.167,186.031c-0.329,0.004-0.673-0.029-0.995-0.063l-0.008-0.004
		c-0.205-0.012-0.38,0.127-0.422,0.341l-4.21,28.157l0.597,28.701c-0.005,0.209,0.153,0.364,0.357,0.381l0.964,0.065
		c0.196,0.015,0.383-0.129,0.416-0.332l4.252-28.448l-0.58-28.414C125.539,186.205,125.379,186.041,125.167,186.031z"/>
	<radialGradient id="SVGID_13_" cx="109.3467" cy="212.8691" r="20.6095" gradientUnits="userSpaceOnUse">
		<stop  offset="5.127409e-004" style="stop-color:#2AFFF0"/>
		<stop  offset="0.1329" style="stop-color:#28F9EE"/>
		<stop  offset="0.3181" style="stop-color:#23E6E7"/>
		<stop  offset="0.5345" style="stop-color:#1AC8DD"/>
		<stop  offset="0.7724" style="stop-color:#0E9FCF"/>
		<stop  offset="1" style="stop-color:#0071BF"/>
	</radialGradient>
	<path fill="url(#SVGID_13_)" d="M102.235,240.477c-0.036,0.201,0.091,0.39,0.287,0.428l0.946,0.22
		c0.197,0.041,0.405-0.074,0.472-0.258l8.64-27.443l3.882-28.151c0.024-0.203-0.099-0.394-0.308-0.441
		c-0.33-0.049-0.654-0.129-0.975-0.215c-0.008-0.002-0.008,0-0.008,0c-0.202-0.049-0.405,0.066-0.466,0.264l-8.565,27.156
		L102.235,240.477z"/>
	<radialGradient id="SVGID_14_" cx="96.3247" cy="208.8574" r="20.7259" gradientUnits="userSpaceOnUse">
		<stop  offset="5.127409e-004" style="stop-color:#2AFFF0"/>
		<stop  offset="0.1329" style="stop-color:#28F9EE"/>
		<stop  offset="0.3181" style="stop-color:#23E6E7"/>
		<stop  offset="0.5345" style="stop-color:#1AC8DD"/>
		<stop  offset="0.7724" style="stop-color:#0E9FCF"/>
		<stop  offset="1" style="stop-color:#0071BF"/>
	</radialGradient>
	<path fill="url(#SVGID_14_)" d="M107.668,182.723c0.067-0.201-0.039-0.406-0.239-0.488c-0.309-0.098-0.623-0.231-0.917-0.36
		l-0.013-0.01c-0.192-0.07-0.406,0.01-0.507,0.19L93.29,207.537l-8.304,27.48c-0.073,0.196,0.024,0.395,0.211,0.469l0.908,0.365
		c0.183,0.067,0.402-0.009,0.494-0.183l12.833-25.75L107.668,182.723z"/>
	<radialGradient id="SVGID_15_" cx="84.0889" cy="202.8633" r="20.8111" gradientUnits="userSpaceOnUse">
		<stop  offset="5.127409e-004" style="stop-color:#2AFFF0"/>
		<stop  offset="0.1329" style="stop-color:#28F9EE"/>
		<stop  offset="0.3181" style="stop-color:#23E6E7"/>
		<stop  offset="0.5345" style="stop-color:#1AC8DD"/>
		<stop  offset="0.7724" style="stop-color:#0E9FCF"/>
		<stop  offset="1" style="stop-color:#0071BF"/>
	</radialGradient>
	<path fill="url(#SVGID_15_)" d="M69.77,227.928c0.18,0.102,0.403,0.059,0.533-0.1L86.994,204.4l12.392-25.574
		c0.091-0.188,0.022-0.406-0.157-0.52c-0.293-0.146-0.587-0.318-0.85-0.492c0,0-0.018-0.006-0.018-0.017
		c-0.181-0.103-0.39-0.06-0.519,0.109l-16.541,23.178l-12.505,25.84c-0.098,0.188-0.025,0.396,0.146,0.504L69.77,227.928z"/>
	<radialGradient id="SVGID_16_" cx="72.9419" cy="195.0293" r="20.858" gradientUnits="userSpaceOnUse">
		<stop  offset="5.127409e-004" style="stop-color:#2AFFF0"/>
		<stop  offset="0.1329" style="stop-color:#28F9EE"/>
		<stop  offset="0.3181" style="stop-color:#23E6E7"/>
		<stop  offset="0.5345" style="stop-color:#1AC8DD"/>
		<stop  offset="0.7724" style="stop-color:#0E9FCF"/>
		<stop  offset="1" style="stop-color:#0071BF"/>
	</radialGradient>
	<path fill="url(#SVGID_16_)" d="M54.89,217.551c0.145,0.125,0.379,0.119,0.531-0.025l20.153-20.52l16.237-23.32
		c0.123-0.174,0.093-0.399-0.073-0.535c-0.262-0.19-0.524-0.411-0.768-0.627c0,0-0.009-0.004-0.009-0.02
		c-0.155-0.123-0.38-0.111-0.528,0.031l-19.961,20.307l-16.396,23.563c-0.129,0.178-0.092,0.387,0.061,0.52L54.89,217.551z"/>
	<radialGradient id="SVGID_17_" cx="63.1558" cy="185.5479" r="20.8627" gradientUnits="userSpaceOnUse">
		<stop  offset="5.127409e-004" style="stop-color:#2AFFF0"/>
		<stop  offset="0.1329" style="stop-color:#28F9EE"/>
		<stop  offset="0.3181" style="stop-color:#23E6E7"/>
		<stop  offset="0.5345" style="stop-color:#1AC8DD"/>
		<stop  offset="0.7724" style="stop-color:#0E9FCF"/>
		<stop  offset="1" style="stop-color:#0071BF"/>
	</radialGradient>
	<path fill="url(#SVGID_17_)" d="M41.795,204.969c0.134,0.148,0.359,0.18,0.531,0.059l23.126-17.112l19.689-20.492
		c0.144-0.153,0.147-0.383,0-0.545c-0.217-0.229-0.45-0.485-0.646-0.733c0,0-0.01-0.013-0.01-0.019
		c-0.141-0.146-0.364-0.181-0.536-0.056l-22.883,16.933l-19.895,20.709c-0.146,0.151-0.141,0.375-0.012,0.524L41.795,204.969z"/>
	<radialGradient id="SVGID_18_" cx="193.3916" cy="70.7354" r="20.8631" gradientUnits="userSpaceOnUse">
		<stop  offset="5.127409e-004" style="stop-color:#2AFFF0"/>
		<stop  offset="0.1329" style="stop-color:#28F9EE"/>
		<stop  offset="0.3181" style="stop-color:#23E6E7"/>
		<stop  offset="0.5345" style="stop-color:#1AC8DD"/>
		<stop  offset="0.7724" style="stop-color:#0E9FCF"/>
		<stop  offset="1" style="stop-color:#0071BF"/>
	</radialGradient>
	<path fill="url(#SVGID_18_)" d="M171.41,88.897c-0.146,0.155-0.146,0.375-0.014,0.525l0.64,0.728
		c0.134,0.163,0.36,0.189,0.53,0.059l23.121-17.119l19.686-20.487c0.148-0.148,0.148-0.387,0-0.54
		c-0.225-0.229-0.45-0.485-0.65-0.74l-0.009-0.011c-0.134-0.152-0.354-0.179-0.522-0.052L191.29,68.187L171.41,88.897z"/>
	<radialGradient id="SVGID_19_" cx="54.9751" cy="174.6533" r="20.8272" gradientUnits="userSpaceOnUse">
		<stop  offset="5.127409e-004" style="stop-color:#2AFFF0"/>
		<stop  offset="0.1329" style="stop-color:#28F9EE"/>
		<stop  offset="0.3181" style="stop-color:#23E6E7"/>
		<stop  offset="0.5345" style="stop-color:#1AC8DD"/>
		<stop  offset="0.7724" style="stop-color:#0E9FCF"/>
		<stop  offset="1" style="stop-color:#0071BF"/>
	</radialGradient>
	<path fill="url(#SVGID_19_)" d="M30.43,189.162c-0.177,0.115-0.213,0.336-0.102,0.514l0.519,0.82
		c0.102,0.164,0.33,0.236,0.512,0.148l25.517-13.297l22.643-17.158c0.171-0.127,0.22-0.353,0.101-0.531
		c-0.191-0.266-0.373-0.555-0.527-0.834c0,0-0.013-0.006-0.013-0.02c-0.105-0.169-0.324-0.229-0.508-0.138l-25.261,13.146
		L30.43,189.162z"/>
	<radialGradient id="SVGID_20_" cx="201.5703" cy="81.626" r="20.8244" gradientUnits="userSpaceOnUse">
		<stop  offset="5.127409e-004" style="stop-color:#2AFFF0"/>
		<stop  offset="0.1329" style="stop-color:#28F9EE"/>
		<stop  offset="0.3181" style="stop-color:#23E6E7"/>
		<stop  offset="0.5345" style="stop-color:#1AC8DD"/>
		<stop  offset="0.7724" style="stop-color:#0E9FCF"/>
		<stop  offset="1" style="stop-color:#0071BF"/>
	</radialGradient>
	<path fill="url(#SVGID_20_)" d="M177.018,96.128c-0.168,0.127-0.205,0.348-0.088,0.519l0.516,0.816
		c0.102,0.174,0.322,0.242,0.51,0.143l25.512-13.29l22.651-17.156c0.17-0.121,0.216-0.358,0.085-0.531
		c-0.178-0.263-0.371-0.549-0.523-0.838l-0.008-0.009c-0.113-0.17-0.316-0.23-0.507-0.139l-25.267,13.14L177.018,96.128z"/>
	<radialGradient id="SVGID_21_" cx="48.6011" cy="162.6143" r="20.7475" gradientUnits="userSpaceOnUse">
		<stop  offset="5.127409e-004" style="stop-color:#2AFFF0"/>
		<stop  offset="0.1329" style="stop-color:#28F9EE"/>
		<stop  offset="0.3181" style="stop-color:#23E6E7"/>
		<stop  offset="0.5345" style="stop-color:#1AC8DD"/>
		<stop  offset="0.7724" style="stop-color:#0E9FCF"/>
		<stop  offset="1" style="stop-color:#0071BF"/>
	</radialGradient>
	<path fill="url(#SVGID_21_)" d="M75.107,152.172c0.195-0.094,0.271-0.32,0.183-0.518c-0.141-0.285-0.276-0.603-0.398-0.904
		c0-0.006,0-0.012,0-0.02c-0.083-0.181-0.286-0.271-0.488-0.207l-27.013,9.022l-25.301,13.56c-0.191,0.092-0.262,0.303-0.182,0.485
		l0.386,0.904c0.077,0.174,0.289,0.272,0.48,0.213l27.284-9.138L75.107,152.172z"/>
	<radialGradient id="SVGID_22_" cx="44.1895" cy="149.7275" r="20.6366" gradientUnits="userSpaceOnUse">
		<stop  offset="5.127409e-004" style="stop-color:#2AFFF0"/>
		<stop  offset="0.1329" style="stop-color:#28F9EE"/>
		<stop  offset="0.3181" style="stop-color:#23E6E7"/>
		<stop  offset="0.5345" style="stop-color:#1AC8DD"/>
		<stop  offset="0.7724" style="stop-color:#0E9FCF"/>
		<stop  offset="1" style="stop-color:#0071BF"/>
	</radialGradient>
	<path fill="url(#SVGID_22_)" d="M16.792,157.639l28.364-4.76l26.85-9.32c0.206-0.065,0.317-0.272,0.26-0.481
		c-0.091-0.308-0.189-0.644-0.251-0.955c0,0-0.002-0.004-0.002-0.019c-0.052-0.194-0.241-0.313-0.444-0.285l-28.089,4.693
		l-27.123,9.432c-0.199,0.062-0.293,0.257-0.247,0.455l0.238,0.943C16.397,157.531,16.588,157.66,16.792,157.639z"/>
	<radialGradient id="SVGID_23_" cx="41.8452" cy="136.3086" r="20.4986" gradientUnits="userSpaceOnUse">
		<stop  offset="5.127409e-004" style="stop-color:#2AFFF0"/>
		<stop  offset="0.1329" style="stop-color:#28F9EE"/>
		<stop  offset="0.3181" style="stop-color:#23E6E7"/>
		<stop  offset="0.5345" style="stop-color:#1AC8DD"/>
		<stop  offset="0.7724" style="stop-color:#0E9FCF"/>
		<stop  offset="1" style="stop-color:#0071BF"/>
	</radialGradient>
	<path fill="url(#SVGID_23_)" d="M70.126,132.783l-28.481,0.24l-28.255,5.063c-0.204,0.035-0.339,0.213-0.317,0.42l0.077,0.966
		c0.032,0.194,0.194,0.356,0.405,0.36l28.772-0.265l27.966-5.004c0.207-0.03,0.348-0.217,0.324-0.428
		c-0.047-0.326-0.075-0.67-0.092-0.986c0.006-0.012,0-0.012,0-0.02C70.5,132.932,70.336,132.785,70.126,132.783z"/>
	<radialGradient id="SVGID_24_" cx="41.6279" cy="122.6992" r="20.5139" gradientUnits="userSpaceOnUse">
		<stop  offset="5.127409e-004" style="stop-color:#2AFFF0"/>
		<stop  offset="0.1329" style="stop-color:#28F9EE"/>
		<stop  offset="0.3181" style="stop-color:#23E6E7"/>
		<stop  offset="0.5345" style="stop-color:#1AC8DD"/>
		<stop  offset="0.7724" style="stop-color:#0E9FCF"/>
		<stop  offset="1" style="stop-color:#0071BF"/>
	</radialGradient>
	<path fill="url(#SVGID_24_)" d="M13.128,121.738l28.459,4.249l28.412-0.561c0.216,0,0.378-0.173,0.397-0.381
		c0-0.325,0.019-0.669,0.055-0.99v-0.015c0.014-0.207-0.129-0.382-0.33-0.41l-28.168-4.219L13.249,120
		c-0.208,0-0.359,0.149-0.378,0.36l-0.065,0.965C12.784,121.524,12.937,121.711,13.128,121.738z"/>
	<radialGradient id="SVGID_25_" cx="43.5498" cy="109.2178" r="20.6126" gradientUnits="userSpaceOnUse">
		<stop  offset="5.127409e-004" style="stop-color:#2AFFF0"/>
		<stop  offset="0.1329" style="stop-color:#28F9EE"/>
		<stop  offset="0.3181" style="stop-color:#23E6E7"/>
		<stop  offset="0.5345" style="stop-color:#1AC8DD"/>
		<stop  offset="0.7724" style="stop-color:#0E9FCF"/>
		<stop  offset="1" style="stop-color:#0071BF"/>
	</radialGradient>
	<path fill="url(#SVGID_25_)" d="M15.55,103.808l27.443,8.65l28.147,3.879c0.213,0.026,0.409-0.102,0.449-0.312
		c0.058-0.318,0.132-0.654,0.211-0.963c0-0.005,0.007-0.012,0.007-0.019c0.046-0.201-0.07-0.391-0.269-0.458l-27.166-8.573
		l-28.44-3.912c-0.196-0.03-0.383,0.102-0.419,0.299l-0.223,0.947C15.252,103.538,15.356,103.741,15.55,103.808z"/>
	<radialGradient id="SVGID_26_" cx="47.5566" cy="96.1978" r="20.7289" gradientUnits="userSpaceOnUse">
		<stop  offset="5.127409e-004" style="stop-color:#2AFFF0"/>
		<stop  offset="0.1329" style="stop-color:#28F9EE"/>
		<stop  offset="0.3181" style="stop-color:#23E6E7"/>
		<stop  offset="0.5345" style="stop-color:#1AC8DD"/>
		<stop  offset="0.7724" style="stop-color:#0E9FCF"/>
		<stop  offset="1" style="stop-color:#0071BF"/>
	</radialGradient>
	<path fill="url(#SVGID_26_)" d="M46.499,99.308l27.189,8.235c0.215,0.065,0.426-0.035,0.495-0.237
		c0.11-0.308,0.227-0.62,0.361-0.921c0-0.003,0.006-0.006,0.006-0.006c0.076-0.196,0-0.403-0.187-0.492l-25.481-12.72l-27.489-8.312
		c-0.195-0.07-0.396,0.033-0.467,0.222l-0.364,0.902c-0.073,0.183,0,0.404,0.189,0.497L46.499,99.308z"/>
	<radialGradient id="SVGID_27_" cx="53.5513" cy="83.9629" r="20.8147" gradientUnits="userSpaceOnUse">
		<stop  offset="5.127409e-004" style="stop-color:#2AFFF0"/>
		<stop  offset="0.1329" style="stop-color:#28F9EE"/>
		<stop  offset="0.3181" style="stop-color:#23E6E7"/>
		<stop  offset="0.5345" style="stop-color:#1AC8DD"/>
		<stop  offset="0.7724" style="stop-color:#0E9FCF"/>
		<stop  offset="1" style="stop-color:#0071BF"/>
	</radialGradient>
	<path fill="url(#SVGID_27_)" d="M52.027,86.874l25.556,12.385c0.194,0.098,0.423,0.025,0.521-0.155
		c0.153-0.291,0.333-0.587,0.5-0.854c0.012-0.006,0.016-0.007,0.016-0.007c0.104-0.178,0.056-0.403-0.107-0.52L55.333,81.18
		L29.482,68.668c-0.182-0.1-0.396-0.024-0.498,0.148l-0.504,0.837c-0.097,0.173-0.058,0.4,0.112,0.519L52.027,86.874z"/>
	<radialGradient id="SVGID_28_" cx="202.998" cy="172.3438" r="20.8122" gradientUnits="userSpaceOnUse">
		<stop  offset="5.127409e-004" style="stop-color:#2AFFF0"/>
		<stop  offset="0.1329" style="stop-color:#28F9EE"/>
		<stop  offset="0.3181" style="stop-color:#23E6E7"/>
		<stop  offset="0.5345" style="stop-color:#1AC8DD"/>
		<stop  offset="0.7724" style="stop-color:#0E9FCF"/>
		<stop  offset="1" style="stop-color:#0071BF"/>
	</radialGradient>
	<path fill="url(#SVGID_28_)" d="M178.932,157.047c-0.188-0.1-0.394-0.023-0.508,0.15l-0.492,0.84
		c-0.097,0.168-0.056,0.396,0.112,0.518l23.422,16.695l25.565,12.393c0.191,0.097,0.425,0.023,0.519-0.16
		c0.146-0.289,0.326-0.584,0.498-0.854c0.015,0,0.015-0.01,0.015-0.01c0.103-0.179,0.054-0.394-0.108-0.519l-23.173-16.541
		L178.932,157.047z"/>
	<radialGradient id="SVGID_29_" cx="61.3867" cy="72.8174" r="20.8592" gradientUnits="userSpaceOnUse">
		<stop  offset="5.127409e-004" style="stop-color:#2AFFF0"/>
		<stop  offset="0.1329" style="stop-color:#28F9EE"/>
		<stop  offset="0.3181" style="stop-color:#23E6E7"/>
		<stop  offset="0.5345" style="stop-color:#1AC8DD"/>
		<stop  offset="0.7724" style="stop-color:#0E9FCF"/>
		<stop  offset="1" style="stop-color:#0071BF"/>
	</radialGradient>
	<path fill="url(#SVGID_29_)" d="M59.422,75.453l23.315,16.23c0.166,0.131,0.404,0.097,0.531-0.07
		c0.197-0.263,0.416-0.525,0.636-0.764c0-0.006,0-0.006,0-0.006c0.141-0.159,0.116-0.388-0.024-0.531L63.576,70.347l-23.57-16.4
		c-0.167-0.126-0.391-0.087-0.519,0.07l-0.621,0.746c-0.126,0.156-0.124,0.386,0.026,0.535L59.422,75.453z"/>
	<radialGradient id="SVGID_30_" cx="195.168" cy="183.4893" r="20.8565" gradientUnits="userSpaceOnUse">
		<stop  offset="5.127409e-004" style="stop-color:#2AFFF0"/>
		<stop  offset="0.1329" style="stop-color:#28F9EE"/>
		<stop  offset="0.3181" style="stop-color:#23E6E7"/>
		<stop  offset="0.5345" style="stop-color:#1AC8DD"/>
		<stop  offset="0.7724" style="stop-color:#0E9FCF"/>
		<stop  offset="1" style="stop-color:#0071BF"/>
	</radialGradient>
	<path fill="url(#SVGID_30_)" d="M193.203,186.121l23.309,16.232c0.172,0.131,0.407,0.096,0.53-0.072
		c0.194-0.264,0.41-0.521,0.631-0.762c0.005-0.011,0.017-0.011,0.017-0.019c0.125-0.151,0.117-0.375-0.032-0.521l-20.3-19.965
		l-23.567-16.4c-0.164-0.115-0.397-0.086-0.519,0.074l-0.621,0.742c-0.129,0.155-0.121,0.385,0.026,0.534L193.203,186.121z"/>
	<radialGradient id="SVGID_31_" cx="70.8721" cy="63.0361" r="20.8615" gradientUnits="userSpaceOnUse">
		<stop  offset="5.127409e-004" style="stop-color:#2AFFF0"/>
		<stop  offset="0.1329" style="stop-color:#28F9EE"/>
		<stop  offset="0.3181" style="stop-color:#23E6E7"/>
		<stop  offset="0.5345" style="stop-color:#1AC8DD"/>
		<stop  offset="0.7724" style="stop-color:#0E9FCF"/>
		<stop  offset="1" style="stop-color:#0071BF"/>
	</radialGradient>
	<path fill="url(#SVGID_31_)" d="M68.514,65.331L89,85.014c0.148,0.15,0.379,0.157,0.544,0.009c0.227-0.226,0.484-0.458,0.736-0.661
		l0.01-0.002c0.151-0.139,0.177-0.357,0.061-0.531L73.415,60.935L52.708,41.052c-0.143-0.149-0.379-0.14-0.526-0.012l-0.732,0.639
		c-0.144,0.133-0.178,0.364-0.053,0.53L68.514,65.331z"/>
	<radialGradient id="SVGID_32_" cx="185.6865" cy="193.2676" r="20.8624" gradientUnits="userSpaceOnUse">
		<stop  offset="5.127409e-004" style="stop-color:#2AFFF0"/>
		<stop  offset="0.1329" style="stop-color:#28F9EE"/>
		<stop  offset="0.3181" style="stop-color:#23E6E7"/>
		<stop  offset="0.5345" style="stop-color:#1AC8DD"/>
		<stop  offset="0.7724" style="stop-color:#0E9FCF"/>
		<stop  offset="1" style="stop-color:#0071BF"/>
	</radialGradient>
	<path fill="url(#SVGID_32_)" d="M188.23,191.172l-20.711-19.885c-0.146-0.15-0.375-0.15-0.521-0.008l-0.737,0.633
		c-0.143,0.137-0.177,0.363-0.051,0.531l17.119,23.123l20.484,19.684c0.15,0.146,0.385,0.148,0.537,0.008
		c0.231-0.229,0.491-0.459,0.746-0.66l0.012-0.006c0.154-0.137,0.17-0.355,0.057-0.525L188.23,191.172z"/>
	<radialGradient id="SVGID_33_" cx="174.7949" cy="201.4473" r="20.824" gradientUnits="userSpaceOnUse">
		<stop  offset="5.127409e-004" style="stop-color:#2AFFF0"/>
		<stop  offset="0.1329" style="stop-color:#28F9EE"/>
		<stop  offset="0.3181" style="stop-color:#23E6E7"/>
		<stop  offset="0.5345" style="stop-color:#1AC8DD"/>
		<stop  offset="0.7724" style="stop-color:#0E9FCF"/>
		<stop  offset="1" style="stop-color:#0071BF"/>
	</radialGradient>
	<path fill="url(#SVGID_33_)" d="M172.109,203.348l17.147,22.644c0.128,0.178,0.354,0.215,0.535,0.09
		c0.263-0.181,0.556-0.36,0.837-0.526l0.005-0.005c0.177-0.11,0.24-0.323,0.142-0.51l-13.141-25.267l-17.345-22.877
		c-0.121-0.168-0.347-0.201-0.519-0.094l-0.824,0.516c-0.166,0.107-0.227,0.33-0.135,0.515L172.109,203.348z"/>
	<radialGradient id="SVGID_34_" cx="162.7578" cy="207.8008" r="20.7315" gradientUnits="userSpaceOnUse">
		<stop  offset="5.127409e-004" style="stop-color:#2AFFF0"/>
		<stop  offset="0.1329" style="stop-color:#28F9EE"/>
		<stop  offset="0.3181" style="stop-color:#23E6E7"/>
		<stop  offset="0.5345" style="stop-color:#1AC8DD"/>
		<stop  offset="0.7724" style="stop-color:#0E9FCF"/>
		<stop  offset="1" style="stop-color:#0071BF"/>
	</radialGradient>
	<path fill="url(#SVGID_34_)" d="M173.709,234.502c0.289-0.145,0.607-0.281,0.912-0.396c0.005-0.006,0.008-0.006,0.008-0.006
		c0.193-0.076,0.281-0.285,0.219-0.477l-9.023-27.012l-13.553-25.305c-0.1-0.185-0.313-0.255-0.489-0.177l-0.897,0.386
		c-0.184,0.073-0.281,0.282-0.218,0.485l15.104,38.41"/>
	<radialGradient id="SVGID_35_" cx="165.7021" cy="159.2793" r="6.5412" gradientUnits="userSpaceOnUse">
		<stop  offset="5.127409e-004" style="stop-color:#2AFFF0"/>
		<stop  offset="0.1329" style="stop-color:#28F9EE"/>
		<stop  offset="0.3181" style="stop-color:#23E6E7"/>
		<stop  offset="0.5345" style="stop-color:#1AC8DD"/>
		<stop  offset="0.7724" style="stop-color:#0E9FCF"/>
		<stop  offset="1" style="stop-color:#0071BF"/>
	</radialGradient>
	<path fill="url(#SVGID_35_)" d="M168.51,153.34c-0.486,0.191-0.994,0.391-1.508,0.596c-1.223,3.64-2.872,6.904-4.9,9.689
		c-0.697,0.975-1.471,1.902-2.285,2.791c4.854-4.023,8.807-8.889,11.771-14.273C170.686,152.484,169.688,152.867,168.51,153.34z"/>
	<radialGradient id="SVGID_36_" cx="104.4644" cy="166.0898" r="11.3214" gradientUnits="userSpaceOnUse">
		<stop  offset="5.127409e-004" style="stop-color:#2AFFF0"/>
		<stop  offset="0.1329" style="stop-color:#28F9EE"/>
		<stop  offset="0.3181" style="stop-color:#23E6E7"/>
		<stop  offset="0.5345" style="stop-color:#1AC8DD"/>
		<stop  offset="0.7724" style="stop-color:#0E9FCF"/>
		<stop  offset="1" style="stop-color:#0071BF"/>
	</radialGradient>
	<path fill="url(#SVGID_36_)" d="M113.654,174.74c1.151-0.635,2.372-1.299,3.872-2.078c-1.078-0.598-2.153-1.254-3.197-1.945
		c-4.705-3.148-9.087-7.195-13.01-12.027c-0.458-0.541-0.871-1.121-1.301-1.692l-0.136-0.166l-0.215,0.114
		c-1.562,0.771-3.566,1.787-5.459,2.871c-0.843,0.47-1.742,0.994-2.542,1.56l-0.263,0.187c5.824,6.422,13.173,11.137,21.232,13.787
		L113.654,174.74z"/>
	<radialGradient id="SVGID_37_" cx="125.2236" cy="175.9746" r="6.778" gradientUnits="userSpaceOnUse">
		<stop  offset="5.127409e-004" style="stop-color:#2AFFF0"/>
		<stop  offset="0.1329" style="stop-color:#28F9EE"/>
		<stop  offset="0.3181" style="stop-color:#23E6E7"/>
		<stop  offset="0.5345" style="stop-color:#1AC8DD"/>
		<stop  offset="0.7724" style="stop-color:#0E9FCF"/>
		<stop  offset="1" style="stop-color:#0071BF"/>
	</radialGradient>
	<path fill="url(#SVGID_37_)" d="M134.625,177.418c-1.271,0-2.561-0.086-3.813-0.252c-3.43-0.428-6.942-1.463-10.424-3.061
		c-0.563,0.266-1.082,0.502-1.583,0.746c-1.133,0.522-2.102,0.991-2.983,1.426C121.879,177.838,128.252,178.264,134.625,177.418z"/>
	<radialGradient id="SVGID_38_" cx="151.0576" cy="116.9688" r="13.91" gradientUnits="userSpaceOnUse">
		<stop  offset="5.127409e-004" style="stop-color:#2AFFF0"/>
		<stop  offset="0.1329" style="stop-color:#28F9EE"/>
		<stop  offset="0.3181" style="stop-color:#23E6E7"/>
		<stop  offset="0.5345" style="stop-color:#1AC8DD"/>
		<stop  offset="0.7724" style="stop-color:#0E9FCF"/>
		<stop  offset="1" style="stop-color:#0071BF"/>
	</radialGradient>
	<path fill="url(#SVGID_38_)" d="M164.285,125.432c-0.975-3.867-2.273-7.738-3.87-11.503c-1.664-4.007-3.677-7.874-5.964-11.521
		c-2.786,1.047-5.542,2.125-9.042,3.502c-2.483,0.981-5.022,1.986-7.579,3.015c2.083,3.847,4.07,7.944,6.082,12.499
		c1.47,3.455,2.791,6.851,3.941,10.105c2.558-1.014,5.105-2.006,7.561-2.938C158.458,127.457,161.368,126.415,164.285,125.432z"/>
	<radialGradient id="SVGID_39_" cx="118.6001" cy="103.3809" r="12.9886" gradientUnits="userSpaceOnUse">
		<stop  offset="5.127409e-004" style="stop-color:#2AFFF0"/>
		<stop  offset="0.1329" style="stop-color:#28F9EE"/>
		<stop  offset="0.3181" style="stop-color:#23E6E7"/>
		<stop  offset="0.5345" style="stop-color:#1AC8DD"/>
		<stop  offset="0.7724" style="stop-color:#0E9FCF"/>
		<stop  offset="1" style="stop-color:#0071BF"/>
	</radialGradient>
	<path fill="url(#SVGID_39_)" d="M120.708,90.421c-2.233,0.902-4.359,1.789-6.35,2.656l-2.451,1.053
		c-1.937,0.844-4.015,1.776-6.324,2.833c0.385,3.222,1.105,6.754,2.199,10.793c0.703,2.587,1.547,5.332,2.617,8.585
		c1.212-0.538,2.443-1.076,3.691-1.622c2.168-0.929,4.445-1.898,6.756-2.872c3.681-1.59,7.295-3.104,10.771-4.526
		c-1.376-2.56-2.866-5.147-4.545-7.902C125.625,97.098,123.401,93.671,120.708,90.421z"/>
	<radialGradient id="SVGID_40_" cx="127.4966" cy="126.7202" r="15.9401" gradientUnits="userSpaceOnUse">
		<stop  offset="5.127409e-004" style="stop-color:#2AFFF0"/>
		<stop  offset="0.1329" style="stop-color:#28F9EE"/>
		<stop  offset="0.3181" style="stop-color:#23E6E7"/>
		<stop  offset="0.5345" style="stop-color:#1AC8DD"/>
		<stop  offset="0.7724" style="stop-color:#0E9FCF"/>
		<stop  offset="1" style="stop-color:#0071BF"/>
	</radialGradient>
	<path fill="url(#SVGID_40_)" d="M111.623,119.961c1.628,4.601,3.395,9.021,5.253,13.145c1.255,3.023,2.69,6.168,4.392,9.621
		c1.363-0.602,2.756-1.209,4.186-1.83c2.156-0.932,4.429-1.903,6.75-2.877c3.869-1.662,7.528-3.205,11.166-4.678
		c-1.334-3.563-2.646-6.814-4.019-9.945c-1.689-3.978-3.565-7.968-5.727-12.223l-0.234-0.46c-3.697,1.509-7.324,3.003-11.083,4.579
		l-1.297,0.558C117.724,117.271,114.618,118.638,111.623,119.961z"/>
	<radialGradient id="SVGID_41_" cx="89.624" cy="98.3198" r="6.3249" gradientUnits="userSpaceOnUse">
		<stop  offset="5.127409e-004" style="stop-color:#2AFFF0"/>
		<stop  offset="0.1329" style="stop-color:#28F9EE"/>
		<stop  offset="0.3181" style="stop-color:#23E6E7"/>
		<stop  offset="0.5345" style="stop-color:#1AC8DD"/>
		<stop  offset="0.7724" style="stop-color:#0E9FCF"/>
		<stop  offset="1" style="stop-color:#0071BF"/>
	</radialGradient>
	<path fill="url(#SVGID_41_)" d="M84.138,105.385c1.405-0.948,2.923-1.9,4.607-2.892c1.313-3.758,3.101-7.121,5.333-9.985
		c0.336-0.429,0.666-0.837,1.032-1.253C90.574,95.3,86.874,100.102,84.138,105.385z"/>
	<radialGradient id="SVGID_42_" cx="152.6689" cy="90.0742" r="10.7896" gradientUnits="userSpaceOnUse">
		<stop  offset="5.127409e-004" style="stop-color:#2AFFF0"/>
		<stop  offset="0.1329" style="stop-color:#28F9EE"/>
		<stop  offset="0.3181" style="stop-color:#23E6E7"/>
		<stop  offset="0.5345" style="stop-color:#1AC8DD"/>
		<stop  offset="0.7724" style="stop-color:#0E9FCF"/>
		<stop  offset="1" style="stop-color:#0071BF"/>
	</radialGradient>
	<path fill="url(#SVGID_42_)" d="M145.805,81.92l-0.744,0.165c-1.865,0.406-3.679,0.925-5.289,1.423
		c0.858,0.475,1.646,0.959,2.41,1.457c4.719,3.1,9.076,7.167,12.975,12.097c0.298,0.38,0.591,0.773,0.89,1.166
		c1.571-0.504,3.733-1.167,5.959-1.763c1.218-0.312,2.224-0.541,3.167-0.711c0.137-0.024,0.255-0.044,0.395-0.067
		C160.152,89.469,153.329,84.785,145.805,81.92z"/>
	<radialGradient id="SVGID_43_" cx="88.5303" cy="145.2109" r="12.0413" gradientUnits="userSpaceOnUse">
		<stop  offset="5.127409e-004" style="stop-color:#2AFFF0"/>
		<stop  offset="0.1329" style="stop-color:#28F9EE"/>
		<stop  offset="0.3181" style="stop-color:#23E6E7"/>
		<stop  offset="0.5345" style="stop-color:#1AC8DD"/>
		<stop  offset="0.7724" style="stop-color:#0E9FCF"/>
		<stop  offset="1" style="stop-color:#0071BF"/>
	</radialGradient>
	<path fill="url(#SVGID_43_)" d="M87.871,130.982c-1.459,0.727-3.271,1.649-5.017,2.649c-0.795,0.447-1.729,0.986-2.554,1.562
		c-0.361,0.25-0.651,0.49-0.882,0.705l-0.243,0.231c0.635,3.983,1.777,7.945,3.453,11.812c1.829,4.24,4.188,8.072,6.959,11.498
		l0.349-0.353c0.946-0.75,1.888-1.383,2.675-1.901c1.814-1.156,3.672-2.222,5.275-3.117c-2.25-3.332-4.225-6.861-5.868-10.488
		C90.22,139.494,88.824,135.258,87.871,130.982z"/>
	<radialGradient id="SVGID_44_" cx="167.6943" cy="111.2275" r="11.4409" gradientUnits="userSpaceOnUse">
		<stop  offset="5.127409e-004" style="stop-color:#2AFFF0"/>
		<stop  offset="0.1329" style="stop-color:#28F9EE"/>
		<stop  offset="0.3181" style="stop-color:#23E6E7"/>
		<stop  offset="0.5345" style="stop-color:#1AC8DD"/>
		<stop  offset="0.7724" style="stop-color:#0E9FCF"/>
		<stop  offset="1" style="stop-color:#0071BF"/>
	</radialGradient>
	<path fill="url(#SVGID_44_)" d="M173.368,122.643c1.187-0.312,2.185-0.534,3.147-0.712c0.262-0.044,0.519-0.092,0.799-0.128
		c-0.582-4.463-1.776-8.918-3.646-13.25c-1.634-3.76-3.68-7.212-6.063-10.335l-0.463,0.05c-0.461,0.053-0.947,0.169-1.375,0.276
		c-0.996,0.261-2.035,0.588-2.895,0.866c-1.8,0.574-3.52,1.188-4.799,1.651c2.354,3.508,4.406,7.308,6.094,11.295
		c1.609,3.853,2.861,7.846,3.732,11.881C169.432,123.764,171.354,123.174,173.368,122.643z"/>
	<radialGradient id="SVGID_45_" cx="132.915" cy="80.2539" r="6.2414" gradientUnits="userSpaceOnUse">
		<stop  offset="5.127409e-004" style="stop-color:#2AFFF0"/>
		<stop  offset="0.1329" style="stop-color:#28F9EE"/>
		<stop  offset="0.3181" style="stop-color:#23E6E7"/>
		<stop  offset="0.5345" style="stop-color:#1AC8DD"/>
		<stop  offset="0.7724" style="stop-color:#0E9FCF"/>
		<stop  offset="1" style="stop-color:#0071BF"/>
	</radialGradient>
	<path fill="url(#SVGID_45_)" d="M136.482,81.853c1.844-0.541,3.524-0.975,5.113-1.331c-5.576-1.58-11.457-2.181-17.361-1.713
		c0.433,0.017,0.875,0.048,1.309,0.091C129.162,79.23,132.84,80.227,136.482,81.853z"/>
	<radialGradient id="SVGID_46_" cx="83.1309" cy="119.3994" r="10.0006" gradientUnits="userSpaceOnUse">
		<stop  offset="5.127409e-004" style="stop-color:#2AFFF0"/>
		<stop  offset="0.1329" style="stop-color:#28F9EE"/>
		<stop  offset="0.3181" style="stop-color:#23E6E7"/>
		<stop  offset="0.5345" style="stop-color:#1AC8DD"/>
		<stop  offset="0.7724" style="stop-color:#0E9FCF"/>
		<stop  offset="1" style="stop-color:#0071BF"/>
	</radialGradient>
	<path fill="url(#SVGID_46_)" d="M82.273,109.418c-2.994,7.31-4.258,15.313-3.519,23.361c0.864-0.67,1.741-1.277,2.511-1.771
		c1.887-1.204,3.825-2.313,5.475-3.224l0.467-0.258c-0.042-0.333-0.101-0.662-0.159-1c-0.937-6.213-0.917-12.176,0.064-17.732
		c0.153-0.898,0.344-1.812,0.602-2.776c-1.525,0.86-3.187,1.853-4.809,2.967L82.273,109.418z"/>
	<radialGradient id="SVGID_47_" cx="136.6729" cy="150.791" r="13.784" gradientUnits="userSpaceOnUse">
		<stop  offset="5.127409e-004" style="stop-color:#2AFFF0"/>
		<stop  offset="0.1329" style="stop-color:#28F9EE"/>
		<stop  offset="0.3181" style="stop-color:#23E6E7"/>
		<stop  offset="0.5345" style="stop-color:#1AC8DD"/>
		<stop  offset="0.7724" style="stop-color:#0E9FCF"/>
		<stop  offset="1" style="stop-color:#0071BF"/>
	</radialGradient>
	<path fill="url(#SVGID_47_)" d="M142.361,161.115c2.598-1.111,5.277-2.242,8.009-3.381c-0.536-3.387-1.329-6.566-1.954-8.99
		c-1.21-4.332-2.434-8.211-3.746-11.822c-3.552,1.445-7.205,2.953-11.012,4.539l-1.297,0.568c-3.291,1.426-6.403,2.787-9.385,4.113
		c1.949,3.758,4.026,7.438,6.18,10.955c1.803,2.93,3.507,5.413,5.205,7.563C137.075,163.441,139.768,162.26,142.361,161.115z"/>
	<radialGradient id="SVGID_48_" cx="143.623" cy="167.0664" r="6.8894" gradientUnits="userSpaceOnUse">
		<stop  offset="5.127409e-004" style="stop-color:#2AFFF0"/>
		<stop  offset="0.1329" style="stop-color:#28F9EE"/>
		<stop  offset="0.3181" style="stop-color:#23E6E7"/>
		<stop  offset="0.5345" style="stop-color:#1AC8DD"/>
		<stop  offset="0.7724" style="stop-color:#0E9FCF"/>
		<stop  offset="1" style="stop-color:#0071BF"/>
	</radialGradient>
	<path fill="url(#SVGID_48_)" d="M147.641,173.186c1.881-1.016,2.693-3.237,3.004-4.916c0.355-1.867,0.43-3.969,0.229-6.44
		c-0.02-0.392-0.082-0.767-0.129-1.146c-2.357,1.015-4.785,2.053-7.208,3.113c-1.004,0.428-1.991,0.854-2.983,1.283
		c-1.451,0.627-2.871,1.25-4.289,1.869c0.256,0.303,0.524,0.59,0.789,0.871c1.733,1.932,3.279,3.281,4.844,4.27
		c1.027,0.615,1.932,1,2.82,1.195C145.738,173.535,146.729,173.502,147.641,173.186z"/>
	<radialGradient id="SVGID_49_" cx="158.1094" cy="162.8877" r="6.8942" gradientUnits="userSpaceOnUse">
		<stop  offset="5.127409e-004" style="stop-color:#2AFFF0"/>
		<stop  offset="0.1329" style="stop-color:#28F9EE"/>
		<stop  offset="0.3181" style="stop-color:#23E6E7"/>
		<stop  offset="0.5345" style="stop-color:#1AC8DD"/>
		<stop  offset="0.7724" style="stop-color:#0E9FCF"/>
		<stop  offset="1" style="stop-color:#0071BF"/>
	</radialGradient>
	<path fill="url(#SVGID_49_)" d="M160.398,162.453c1.47-2.178,2.675-4.631,3.623-7.318c-1.239,0.502-2.521,1.031-3.869,1.6
		c-1.905,0.793-4.006,1.664-6.188,2.584c0.029,0.877,0.05,1.668,0.029,2.414c-0.063,2-0.24,4.623-1.058,7.136
		c-0.227,0.659-0.463,1.243-0.737,1.772C155.504,168.416,158.318,165.623,160.398,162.453z"/>
	<radialGradient id="SVGID_50_" cx="117.1431" cy="159.6641" r="12.8153" gradientUnits="userSpaceOnUse">
		<stop  offset="5.127409e-004" style="stop-color:#2AFFF0"/>
		<stop  offset="0.1329" style="stop-color:#28F9EE"/>
		<stop  offset="0.3181" style="stop-color:#23E6E7"/>
		<stop  offset="0.5345" style="stop-color:#1AC8DD"/>
		<stop  offset="0.7724" style="stop-color:#0E9FCF"/>
		<stop  offset="1" style="stop-color:#0071BF"/>
	</radialGradient>
	<path fill="url(#SVGID_50_)" d="M104.129,156.51c3.576,4.865,7.54,8.887,11.774,11.943c1.389,1.012,2.875,1.955,4.421,2.811
		c2.033-1.004,3.949-1.928,5.514-2.68c1.736-0.818,3.48-1.627,5.23-2.432c-2.256-2.541-4.112-5.055-5.353-6.771
		c-2.457-3.446-4.76-7.147-7.058-11.317c-2.679,1.213-5.264,2.395-7.759,3.553c-2.447,1.111-5.037,2.314-7.681,3.584l0.093,0.135
		C103.58,155.732,103.849,156.135,104.129,156.51z"/>
	<radialGradient id="SVGID_51_" cx="132.916" cy="171.9375" r="7.2528" gradientUnits="userSpaceOnUse">
		<stop  offset="5.127409e-004" style="stop-color:#2AFFF0"/>
		<stop  offset="0.1329" style="stop-color:#28F9EE"/>
		<stop  offset="0.3181" style="stop-color:#23E6E7"/>
		<stop  offset="0.5345" style="stop-color:#1AC8DD"/>
		<stop  offset="0.7724" style="stop-color:#0E9FCF"/>
		<stop  offset="1" style="stop-color:#0071BF"/>
	</radialGradient>
	<path fill="url(#SVGID_51_)" d="M140.803,174.125c-1.9-0.902-3.785-2.193-5.951-4.074c-0.545-0.514-1.108-1.051-1.746-1.701
		c-2.158,0.953-4.213,1.879-6.111,2.73c-1.277,0.576-2.496,1.125-3.688,1.67c2.597,1.146,5.229,1.947,7.815,2.375
		c3.652,0.633,7.602,0.51,11.404-0.34C141.979,174.621,141.418,174.4,140.803,174.125z"/>
	<radialGradient id="SVGID_52_" cx="172.8242" cy="137.7441" r="9.9116" gradientUnits="userSpaceOnUse">
		<stop  offset="5.127409e-004" style="stop-color:#2AFFF0"/>
		<stop  offset="0.1329" style="stop-color:#28F9EE"/>
		<stop  offset="0.3181" style="stop-color:#23E6E7"/>
		<stop  offset="0.5345" style="stop-color:#1AC8DD"/>
		<stop  offset="0.7724" style="stop-color:#0E9FCF"/>
		<stop  offset="1" style="stop-color:#0071BF"/>
	</radialGradient>
	<path fill="url(#SVGID_52_)" d="M173.113,149.146c3.517-7.59,5.113-16.023,4.488-24.53c-0.158,0.03-0.322,0.069-0.476,0.113
		c-0.997,0.245-1.985,0.559-2.905,0.859c-2.137,0.68-4.257,1.457-5.703,1.988l0.043,0.316c0.108,0.529,0.193,1.058,0.254,1.581
		c0.836,6.176,0.797,12.141-0.125,17.719c-0.209,1.25-0.48,2.479-0.776,3.682c1.558-0.545,2.84-0.98,4.03-1.361L173.113,149.146z"/>
	<radialGradient id="SVGID_53_" cx="138.2793" cy="95.0825" r="12.4818" gradientUnits="userSpaceOnUse">
		<stop  offset="5.127409e-004" style="stop-color:#2AFFF0"/>
		<stop  offset="0.1329" style="stop-color:#28F9EE"/>
		<stop  offset="0.3181" style="stop-color:#23E6E7"/>
		<stop  offset="0.5345" style="stop-color:#1AC8DD"/>
		<stop  offset="0.7724" style="stop-color:#0E9FCF"/>
		<stop  offset="1" style="stop-color:#0071BF"/>
	</radialGradient>
	<path fill="url(#SVGID_53_)" d="M129.921,86.844c-1.829,0.671-3.735,1.413-5.836,2.226c2.151,2.276,4.278,4.914,6.472,8.048
		c1.83,2.59,3.637,5.432,5.381,8.459c2.691-1.08,5.43-2.144,8.129-3.165c2.92-1.091,5.682-2.075,8.406-3.002
		c-0.049-0.077-0.097-0.151-0.146-0.221c-3.521-4.922-7.443-8.944-11.697-11.961c-1.317-0.943-2.755-1.838-4.28-2.64
		C134.318,85.255,132.216,85.993,129.921,86.844z"/>
	<radialGradient id="SVGID_54_" cx="157.7051" cy="142.5957" r="11.4655" gradientUnits="userSpaceOnUse">
		<stop  offset="5.127409e-004" style="stop-color:#2AFFF0"/>
		<stop  offset="0.1329" style="stop-color:#28F9EE"/>
		<stop  offset="0.3181" style="stop-color:#23E6E7"/>
		<stop  offset="0.5345" style="stop-color:#1AC8DD"/>
		<stop  offset="0.7724" style="stop-color:#0E9FCF"/>
		<stop  offset="1" style="stop-color:#0071BF"/>
	</radialGradient>
	<path fill="url(#SVGID_54_)" d="M153.771,156.326c1.78-0.727,3.543-1.441,5.354-2.145c2.22-0.865,4.118-1.591,5.858-2.238
		c0.423-1.707,0.758-3.439,0.974-5.148c0.657-5.178,0.442-10.818-0.638-16.76c-0.08-0.344-0.15-0.688-0.233-1.035
		c-0.012-0.047-0.012-0.086-0.028-0.135c-2.719,1.035-5.477,2.121-8.291,3.217c-2.521,0.994-5.084,2.018-7.688,3.059
		c1.437,4.42,2.539,8.558,3.394,12.642C153.107,150.898,153.542,153.703,153.771,156.326z"/>
	<radialGradient id="SVGID_55_" cx="111.9863" cy="88.4868" r="6.1181" gradientUnits="userSpaceOnUse">
		<stop  offset="5.127409e-004" style="stop-color:#2AFFF0"/>
		<stop  offset="0.1329" style="stop-color:#28F9EE"/>
		<stop  offset="0.3181" style="stop-color:#23E6E7"/>
		<stop  offset="0.5345" style="stop-color:#1AC8DD"/>
		<stop  offset="0.7724" style="stop-color:#0E9FCF"/>
		<stop  offset="1" style="stop-color:#0071BF"/>
	</radialGradient>
	<path fill="url(#SVGID_55_)" d="M108.669,83.307c-1.516,0.806-2.567,2.469-3.085,4.905c-0.313,1.643-0.403,3.465-0.27,5.711
		c2.122-0.99,4.314-1.976,6.674-3.009c2.371-1.008,4.582-1.931,6.73-2.79c-1.479-1.581-2.913-2.793-4.323-3.689
		c-1.019-0.637-2.537-1.384-4.162-1.384C109.686,83.05,109.164,83.138,108.669,83.307z"/>
	<radialGradient id="SVGID_56_" cx="98.0605" cy="93.2246" r="6.752" gradientUnits="userSpaceOnUse">
		<stop  offset="5.127409e-004" style="stop-color:#2AFFF0"/>
		<stop  offset="0.1329" style="stop-color:#28F9EE"/>
		<stop  offset="0.3181" style="stop-color:#23E6E7"/>
		<stop  offset="0.5345" style="stop-color:#1AC8DD"/>
		<stop  offset="0.7724" style="stop-color:#0E9FCF"/>
		<stop  offset="1" style="stop-color:#0071BF"/>
	</radialGradient>
	<path fill="url(#SVGID_56_)" d="M95.73,93.736c-1.467,2.047-2.711,4.353-3.705,6.888c1.148-0.628,2.304-1.251,3.469-1.871
		c2.122-1.11,4.328-2.218,6.756-3.38v-0.617c0.104-2.883,0.45-5.147,1.103-7.138c0.226-0.661,0.47-1.253,0.743-1.793
		C100.751,88.003,97.886,90.712,95.73,93.736z"/>
	<radialGradient id="SVGID_57_" cx="123.2539" cy="83.7773" r="7.1475" gradientUnits="userSpaceOnUse">
		<stop  offset="5.127409e-004" style="stop-color:#2AFFF0"/>
		<stop  offset="0.1329" style="stop-color:#28F9EE"/>
		<stop  offset="0.3181" style="stop-color:#23E6E7"/>
		<stop  offset="0.5345" style="stop-color:#1AC8DD"/>
		<stop  offset="0.7724" style="stop-color:#0E9FCF"/>
		<stop  offset="1" style="stop-color:#0071BF"/>
	</radialGradient>
	<path fill="url(#SVGID_57_)" d="M113.633,81.661c0.59,0.17,1.213,0.401,1.867,0.691c2.395,1.119,4.424,2.778,5.93,4.097
		c0.155,0.144,0.308,0.286,0.449,0.428c2.493-0.965,4.827-1.823,7.115-2.622c1.297-0.444,2.586-0.868,3.881-1.286
		c-2.533-1.017-5.074-1.702-7.568-2.032C121.553,80.426,117.565,80.675,113.633,81.661z"/>
	<radialGradient id="SVGID_58_" cx="97.7891" cy="112.123" r="11.3214" gradientUnits="userSpaceOnUse">
		<stop  offset="5.127409e-004" style="stop-color:#2AFFF0"/>
		<stop  offset="0.1329" style="stop-color:#28F9EE"/>
		<stop  offset="0.3181" style="stop-color:#23E6E7"/>
		<stop  offset="0.5345" style="stop-color:#1AC8DD"/>
		<stop  offset="0.7724" style="stop-color:#0E9FCF"/>
		<stop  offset="1" style="stop-color:#0071BF"/>
	</radialGradient>
	<path fill="url(#SVGID_58_)" d="M102.364,98.472c-2.047,0.965-3.879,1.859-5.612,2.724c-2.135,1.061-4.066,2.069-5.925,3.074
		c-0.452,1.668-0.787,3.325-1.007,4.946c-0.703,5.117-0.476,10.689,0.687,16.558c2.334-1.225,4.769-2.447,7.428-3.73
		c2.602-1.234,5.29-2.486,8.221-3.805c-0.987-3.301-1.763-6.425-2.398-9.532C103.244,105.981,102.614,102.4,102.364,98.472z"/>
	<radialGradient id="SVGID_59_" cx="104.1011" cy="137.0791" r="14.0289" gradientUnits="userSpaceOnUse">
		<stop  offset="5.127409e-004" style="stop-color:#2AFFF0"/>
		<stop  offset="0.1329" style="stop-color:#28F9EE"/>
		<stop  offset="0.3181" style="stop-color:#23E6E7"/>
		<stop  offset="0.5345" style="stop-color:#1AC8DD"/>
		<stop  offset="0.7724" style="stop-color:#0E9FCF"/>
		<stop  offset="1" style="stop-color:#0071BF"/>
	</radialGradient>
	<path fill="url(#SVGID_59_)" d="M109.298,148.223c2.463-1.176,5.011-2.354,7.578-3.524c-1.529-2.986-3.021-6.125-4.565-9.601
		c-2.011-4.738-3.646-9.071-5.017-13.198c-2.679,1.205-5.266,2.381-7.747,3.542c-2.438,1.104-5.284,2.422-8.221,3.84
		c1.103,4.325,2.585,8.565,4.415,12.633c1.583,3.584,3.452,7.051,5.529,10.344C103.735,150.967,106.36,149.643,109.298,148.223z"/>
	<g>
		<radialGradient id="SVGID_60_" cx="204.5078" cy="127.0938" r="18.7158" gradientUnits="userSpaceOnUse">
			<stop  offset="5.127409e-004" style="stop-color:#2AFFF0"/>
			<stop  offset="0.1329" style="stop-color:#28F9EE"/>
			<stop  offset="0.3181" style="stop-color:#23E6E7"/>
			<stop  offset="0.5345" style="stop-color:#1AC8DD"/>
			<stop  offset="0.7724" style="stop-color:#0E9FCF"/>
			<stop  offset="1" style="stop-color:#0071BF"/>
		</radialGradient>
		<path fill="url(#SVGID_60_)" d="M183.846,110.844c9.225,4.9,18.45,9.8,27.784,14.756c0.787-2.251,2.04-4.067,4.288-4.938
			c1.609-0.624,3.27-0.66,4.914-0.076c2.98,1.06,4.857,4.072,4.531,7.257c-0.307,2.994-2.701,5.572-5.629,6.044
			c-3.02,0.488-6.498-0.637-8.149-5.391c-9.249,4.953-18.485,9.9-27.722,14.848c-0.082-0.008-0.165-0.016-0.248-0.025
			c5.037-10.793,5.193-21.573,0.005-32.337C183.695,110.937,183.77,110.89,183.846,110.844z M188.227,138.203
			c7.051-3.779,13.881-7.438,20.834-11.163c-6.957-3.695-13.789-7.325-20.828-11.064
			C190.531,123.451,190.48,130.727,188.227,138.203z"/>
		<radialGradient id="SVGID_61_" cx="232.6973" cy="128.2822" r="17.6513" gradientUnits="userSpaceOnUse">
			<stop  offset="5.127409e-004" style="stop-color:#2AFFF0"/>
			<stop  offset="0.1329" style="stop-color:#28F9EE"/>
			<stop  offset="0.3181" style="stop-color:#23E6E7"/>
			<stop  offset="0.5345" style="stop-color:#1AC8DD"/>
			<stop  offset="0.7724" style="stop-color:#0E9FCF"/>
			<stop  offset="1" style="stop-color:#0071BF"/>
		</radialGradient>
		<path fill="url(#SVGID_61_)" d="M222.199,105.726c2.798-0.292,5.502,0.11,8.072,1.243c5.918,2.608,9.713,7.196,11.564,13.257
			c2.818,9.23,1.346,17.722-5.294,24.969c-3.819,4.169-9.162,6.13-14.199,5.669c12.593-3.693,18.39-12.435,17.353-25.489
			C238.926,115.688,231.829,107.516,222.199,105.726z"/>
		<radialGradient id="SVGID_62_" cx="225.5781" cy="127.6743" r="13.6882" gradientUnits="userSpaceOnUse">
			<stop  offset="5.127409e-004" style="stop-color:#2AFFF0"/>
			<stop  offset="0.1329" style="stop-color:#28F9EE"/>
			<stop  offset="0.3181" style="stop-color:#23E6E7"/>
			<stop  offset="0.5345" style="stop-color:#1AC8DD"/>
			<stop  offset="0.7724" style="stop-color:#0E9FCF"/>
			<stop  offset="1" style="stop-color:#0071BF"/>
		</radialGradient>
		<path fill="url(#SVGID_62_)" d="M217.454,145.082c4.994-0.998,8.673-3.678,11.2-7.908c2.014-3.367,2.813-7.045,2.511-10.946
			c-0.597-7.731-5.903-14.523-13.735-15.883c0.004-0.076,0.006-0.153,0.01-0.23c1.19,0.096,2.402,0.078,3.566,0.308
			c4.602,0.906,7.877,3.648,10.191,7.622c4.189,7.186,3.078,16.947-2.609,22.795c-2.854,2.932-6.322,4.473-10.458,4.391
			c-0.123-0.002-0.244-0.006-0.364-0.02C217.714,145.205,217.666,145.172,217.454,145.082z"/>
		<radialGradient id="SVGID_63_" cx="171.4004" cy="145.3838" r="0.3377" gradientUnits="userSpaceOnUse">
			<stop  offset="5.127409e-004" style="stop-color:#2AFFF0"/>
			<stop  offset="0.1329" style="stop-color:#28F9EE"/>
			<stop  offset="0.3181" style="stop-color:#23E6E7"/>
			<stop  offset="0.5345" style="stop-color:#1AC8DD"/>
			<stop  offset="0.7724" style="stop-color:#0E9FCF"/>
			<stop  offset="1" style="stop-color:#0071BF"/>
		</radialGradient>
		<path fill="url(#SVGID_63_)" d="M171.131,145.777c0.018-0.256,0.02-0.519,0.069-0.769c0.007-0.026,0.409-0.024,0.415,0.005
			c0.047,0.245,0.044,0.502,0.056,0.756c-0.11-0.229-0.224-0.455-0.333-0.683C171.27,145.316,171.199,145.549,171.131,145.777z"/>
		<radialGradient id="SVGID_64_" cx="171.4004" cy="145.4326" r="0.3098" gradientUnits="userSpaceOnUse">
			<stop  offset="5.127409e-004" style="stop-color:#2AFFF0"/>
			<stop  offset="0.1329" style="stop-color:#28F9EE"/>
			<stop  offset="0.3181" style="stop-color:#23E6E7"/>
			<stop  offset="0.5345" style="stop-color:#1AC8DD"/>
			<stop  offset="0.7724" style="stop-color:#0E9FCF"/>
			<stop  offset="1" style="stop-color:#0071BF"/>
		</radialGradient>
		<path fill="url(#SVGID_64_)" d="M171.131,145.777c0.068-0.229,0.139-0.461,0.207-0.689c0.11,0.227,0.223,0.453,0.333,0.682
			C171.491,145.773,171.311,145.775,171.131,145.777z"/>
	</g>
</g>
</svg>
